<svg width="90" height="67" viewBox="0 0 90 67" fill="none" xmlns="http://www.w3.org/2000/svg">
<path fill-rule="evenodd" clip-rule="evenodd" d="M44.9995 62.8794L65.7535 32.4032L86.4678 1.927H44.9995H3.53125L24.2455 32.4032L44.9995 62.8794Z" fill="white"/>
<path fill-rule="evenodd" clip-rule="evenodd" d="M22.3016 0.0617676H23.2937H66.2302H67.2222H86.5079H90L88.0159 2.95859L67.2619 33.4348L46.5079 63.911L45 66.1729L43.4524 63.911L22.7381 33.4348L1.98413 2.95859L0 0.0617676H3.49206H22.3016V0.0617676ZM63.6905 3.79193H25.7937L28.1349 7.24431L29.4444 9.18875L27.2222 10.0221C24.8413 10.8951 22.619 11.9665 20.6349 13.2364C19.2857 14.0697 18.0159 14.9824 16.8254 15.9745C19.3254 18.038 22.3016 19.784 25.6349 21.1729C29.7222 22.8792 34.3254 24.0697 39.1667 24.5459L40 24.6253L40.4762 25.3395L44.7222 31.6094L48.9286 25.4189L49.4048 24.7046L50.2778 24.6253C55.2381 24.1491 59.9603 22.9586 64.127 21.2522C67.5397 19.8237 70.5556 18.038 73.0556 15.9348C71.8651 14.9427 70.5159 13.9903 69.0873 13.1173C67.0238 11.8475 64.7222 10.7761 62.2619 9.90304L60.0397 9.0697L61.3889 7.12526L63.6905 3.79193ZM25.7937 31.3713L45 59.6253L64.2064 31.3713L70.3968 22.3237C68.8889 23.1967 67.2619 23.9903 65.5952 24.6649C61.3492 26.4507 56.5873 27.6411 51.5476 28.2364L46.2698 35.9745L44.7222 38.2364L43.2143 35.9745L37.8968 28.157C33.0159 27.5618 28.3333 26.3316 24.2064 24.5856C22.619 23.911 21.0714 23.157 19.6429 22.3634L25.7937 31.3713ZM7.02381 3.79193L13.8095 13.7522C15.2778 12.403 16.9444 11.1729 18.7302 10.0618C20.3175 9.0697 22.0238 8.19669 23.8095 7.40304L21.3492 3.75224H7.02381V3.79193ZM71.0714 9.94272C72.9365 11.0538 74.6825 12.3237 76.2302 13.7126L83.0159 3.75224H68.2143L65.8333 7.24431C67.6587 8.07764 69.4048 8.95066 71.0714 9.94272Z" fill="#2D358B"/>
<path fill-rule="evenodd" clip-rule="evenodd" d="M73.0948 15.9348C70.0392 13.3555 66.19 11.2523 61.8249 9.74434C56.7059 7.95863 50.9519 6.96656 44.9598 6.96656C38.9281 6.96656 33.1344 7.91895 28.0551 9.74434C23.7297 11.2523 19.9202 13.3555 16.8646 15.9745C19.9202 18.5539 23.7694 20.6174 28.1344 22.1253C33.2138 23.911 39.0075 24.8634 44.9598 24.8634C50.9519 24.8634 56.7455 23.8713 61.8646 22.0856C66.19 20.5777 70.0392 18.4745 73.0948 15.9348ZM63.0551 6.25228C68.6106 8.19672 73.4916 11.0539 77.1424 14.6253L78.4916 15.9348L77.1424 17.2443C73.4916 20.8158 68.6106 23.6729 63.0551 25.6174C57.5392 27.5618 51.3487 28.5935 44.9598 28.5935C38.5709 28.5935 32.4202 27.5618 26.9043 25.6174C21.3487 23.6729 16.5075 20.8555 12.817 17.3237L11.4678 16.0142L12.817 14.7047C16.4678 11.0935 21.2694 8.19672 26.8249 6.25228C32.3011 4.30783 38.4916 3.27609 44.9598 3.27609C51.3487 3.23641 57.5392 4.30783 63.0551 6.25228Z" fill="#2D358B"/>
<path fill-rule="evenodd" clip-rule="evenodd" d="M44.365 16.0542V15.7764C44.4046 14.705 44.8015 13.7923 45.5554 13.078C46.2697 12.3637 47.1824 12.0066 48.2538 12.0066C49.365 12.0066 50.2777 12.4034 51.0316 13.1574C51.7856 13.951 52.1427 14.9034 52.1427 16.0145C52.1427 18.1177 51.3888 19.9431 49.8411 21.451C48.2935 22.959 46.4681 23.7129 44.3253 23.7129C42.1427 23.7129 40.3173 22.9986 38.8888 21.5304C37.4205 20.0621 36.6665 18.1971 36.5078 15.8955C36.6665 17.1653 37.1031 18.1574 37.738 18.7923C38.4126 19.4669 39.2856 19.7844 40.3967 19.7844C41.4681 19.7844 42.3808 19.4272 43.0951 18.7129C43.9284 18.0383 44.3253 17.1256 44.365 16.0542ZM49.4046 15.9351C49.4046 15.6177 49.2856 15.3796 49.0872 15.1415C48.8888 14.9034 48.611 14.824 48.2935 14.824C47.9761 14.824 47.738 14.9431 47.4999 15.1415C47.2618 15.3399 47.1824 15.6177 47.1824 15.9351C47.1824 16.2526 47.3015 16.4907 47.4999 16.7288C47.738 16.9272 47.9761 17.0463 48.2935 17.0463C48.611 17.0463 48.8491 16.9272 49.0872 16.7288C49.2856 16.4907 49.4046 16.2129 49.4046 15.9351ZM41.5872 15.9351C41.5872 15.6177 41.4681 15.3796 41.2697 15.1415C41.0316 14.9034 40.7935 14.824 40.4761 14.824C40.1586 14.824 39.9205 14.9431 39.6824 15.1415C39.4443 15.3399 39.365 15.6177 39.365 15.9351C39.365 16.2526 39.484 16.4907 39.6824 16.7288C39.9205 16.9272 40.1586 17.0463 40.4761 17.0463C40.7935 17.0463 41.0713 16.9272 41.2697 16.7288C41.4681 16.4907 41.5872 16.2129 41.5872 15.9351ZM52.738 15.9351C52.738 13.5939 51.9046 11.6494 50.2777 10.0225C48.6507 8.39547 46.6665 7.56213 44.365 7.56213C42.0634 7.56213 40.0792 8.39547 38.4523 10.0225C36.8253 11.6494 35.9919 13.6336 35.9919 15.9351C35.9919 18.2367 36.8253 20.2209 38.4523 21.8478C40.0792 23.4748 42.0634 24.3082 44.365 24.3082C46.6665 24.3082 48.6507 23.4748 50.2777 21.8478C51.9443 20.2209 52.738 18.2367 52.738 15.9351Z" fill="black"/>
<path fill-rule="evenodd" clip-rule="evenodd" d="M45.2778 42.0064L57.7381 21.9667L70.1984 1.927H45.2778H20.3572L32.8175 21.9667L45.2778 42.0064Z" fill="#2D358B"/>
<path fill-rule="evenodd" clip-rule="evenodd" d="M75.4763 15.9349C68.6509 9.26819 57.2223 5.26025 44.9604 5.26025C32.6192 5.26025 21.3493 9.22851 14.5239 16.0142C21.389 22.6412 32.7779 26.6095 44.9604 26.6095C57.1827 26.6095 68.6509 22.6015 75.4763 15.9349Z" fill="#2D358B"/>
<path fill-rule="evenodd" clip-rule="evenodd" d="M72.6592 15.9348C69.6433 13.4348 65.8734 11.3713 61.6274 9.86341C56.5877 8.11737 50.8734 7.12531 45.0004 7.12531C39.048 7.12531 33.3338 8.07769 28.3338 9.86341C24.0877 11.3713 20.3576 13.4348 17.3814 15.9745C20.3972 18.4745 24.1671 20.538 28.4131 22.0063C33.4528 23.7523 39.1274 24.7047 45.0004 24.7047C50.9131 24.7047 56.6274 23.7523 61.6274 21.9666C65.8734 20.4983 69.6433 18.4348 72.6592 15.9348ZM62.8576 6.29198C68.3734 8.23642 73.175 11.0539 76.7861 14.5459L78.175 15.8952L76.7861 17.2444C73.175 20.7761 68.3734 23.5936 62.8576 25.4983C57.4211 27.4031 51.2703 28.4348 44.9607 28.4348C38.6512 28.4348 32.5401 27.4031 27.1036 25.4983C21.6274 23.5936 16.8258 20.7761 13.175 17.284L11.7861 15.9348L13.175 14.5856C16.7861 11.0142 21.548 8.15706 27.0242 6.25229C32.4607 4.38721 38.5719 3.35547 44.9607 3.35547C51.2703 3.35547 57.4211 4.38721 62.8576 6.29198Z" fill="#A1C93A"/>
<path fill-rule="evenodd" clip-rule="evenodd" d="M45.2775 6.60962C50.4363 6.60962 54.6029 10.7763 54.6029 15.935C54.6029 21.0541 50.4363 25.2604 45.2775 25.2604C40.1188 25.2604 35.9521 21.0937 35.9521 15.935C35.9521 10.7763 40.1585 6.60962 45.2775 6.60962Z" fill="#A1C93A"/>
<path fill-rule="evenodd" clip-rule="evenodd" d="M45.2779 7.64124C49.8414 7.64124 53.5319 11.3317 53.5319 15.9349C53.5319 20.4984 49.8414 24.1889 45.2779 24.1889C40.7144 24.1889 37.0239 20.4984 37.0239 15.9349C37.0239 11.3714 40.7144 7.64124 45.2779 7.64124Z" fill="white"/>
<path fill-rule="evenodd" clip-rule="evenodd" d="M45.2779 16.0539V15.7762C45.3176 14.7047 45.7144 13.8317 46.4684 13.1174C47.1827 12.4031 48.0954 12.046 49.1271 12.046C50.1985 12.046 51.1112 12.4031 51.8652 13.1968C52.5795 13.9508 52.9763 14.9031 52.9763 16.0539C52.9763 18.1174 52.2223 19.9031 50.6747 21.4111C49.1668 22.919 47.3414 23.673 45.2382 23.673C43.0954 23.673 41.3096 22.9587 39.8414 21.5301C38.4128 20.1016 37.6192 18.2365 37.5001 15.9746C37.6588 17.2444 38.0557 18.1968 38.7303 18.8317C39.4049 19.5063 40.2779 19.8238 41.3493 19.8238C42.4208 19.8238 43.2938 19.4666 44.0081 18.7523C44.8414 18.0381 45.2382 17.1254 45.2779 16.0539ZM50.2382 15.9349C50.2382 15.6174 50.1192 15.3793 49.9208 15.1412C49.7223 14.9031 49.4446 14.8238 49.1668 14.8238C48.8493 14.8238 48.6112 14.9428 48.3731 15.1412C48.135 15.3396 48.0557 15.6174 48.0557 15.9349C48.0557 16.2523 48.1747 16.4904 48.3731 16.7285C48.5715 16.9269 48.8493 17.046 49.1668 17.046C49.4842 17.046 49.7223 16.9269 49.9604 16.7285C50.1192 16.4904 50.2382 16.2523 50.2382 15.9349ZM42.5398 15.9349C42.5398 15.6571 42.4208 15.3793 42.2223 15.1412C42.0239 14.9428 41.7461 14.8238 41.4684 14.8238C41.1509 14.8238 40.9128 14.9428 40.6747 15.1412C40.4366 15.3396 40.3573 15.6174 40.3573 15.9349C40.3573 16.2523 40.4763 16.4904 40.6747 16.7285C40.9128 16.9269 41.1509 17.046 41.4684 17.046C41.7858 17.046 42.0239 16.9269 42.262 16.7285C42.4208 16.4904 42.5398 16.2523 42.5398 15.9349ZM53.5319 15.9349C53.5319 13.6333 52.7382 11.6889 51.1112 10.0619C49.4842 8.47457 47.5398 7.64124 45.2779 7.64124C42.9763 7.64124 41.0319 8.43489 39.4446 10.0619C37.8176 11.6889 37.0239 13.6333 37.0239 15.9349C37.0239 18.2365 37.8176 20.1809 39.4446 21.7682C41.0715 23.3952 43.016 24.1889 45.2779 24.1889C47.5795 24.1889 49.5239 23.3952 51.1112 21.7682C52.7382 20.1809 53.5319 18.2365 53.5319 15.9349Z" fill="black"/>
</svg>
