<svg width="411" height="71" viewBox="0 0 411 71" fill="none" xmlns="http://www.w3.org/2000/svg">
<path d="M35.0809 70.7759C45.244 70.7759 52.4508 66.3697 58.3643 60.4847L50.6173 49.5825C46.1681 53.9464 40.8383 57.244 34.6689 57.244C24.3069 57.244 13.6456 48.0047 13.6456 36.0504C13.6456 24.3236 23.9229 14.7572 34.7116 14.7572C40.4969 14.7572 45.9976 17.5008 50.5747 21.9928L58.3643 11.3463C51.3279 4.60814 43.5815 1.15442 34.8393 1.02628C15.9345 1.02628 0 17.0461 0 35.9793C0 54.8275 15.7213 70.7759 35.0809 70.7759Z" fill="#fff"/>
<path d="M101.778 1.0262V28.9614H77.3881V1.0262H63.8154V70.7842H77.3881V42.8482H101.778V70.7842H115.351V1.0262H101.778Z" fill="#fff"/>
<path d="M119.277 70.7983H134.054L151.861 32.5994L169.607 70.7983H184.333L151.861 0.902464L119.277 70.7983Z" fill="#fff"/>
<path d="M229.079 1.02612V39.0613L188.261 1.02612V70.7837H201.862V32.9449L242.737 70.7837V1.02612H229.079Z" fill="#fff"/>
<path d="M293.812 1.02612V39.0613L252.994 1.02612V70.7837H266.595V32.9449L307.471 70.7837V1.02612H293.812Z" fill="#fff"/>
<path d="M382.9 57.2976V1.0262H369.299V70.7842H410.131V57.2976H382.9Z" fill="#fff"/>
<path fill-rule="evenodd" clip-rule="evenodd" d="M318.452 29.1619H331.833V42.6484H318.452V29.1619Z" fill="#00AEEF"/>
<path fill-rule="evenodd" clip-rule="evenodd" d="M345.214 29.1619H331.833V42.6484H345.214V29.1619Z" fill="#EC008C"/>
<path fill-rule="evenodd" clip-rule="evenodd" d="M345.214 29.1619H358.595V42.6484H345.214V29.1619Z" fill="#F5821F"/>
<path d="M318.452 57.2976H358.594V70.7837H318.452V57.2976Z" fill="#fff"/>
<path d="M318.452 1.02633H358.594V14.5127H318.452V1.02633Z" fill="#fff"/>
</svg>
