<svg width="50" height="50" viewBox="0 0 50 50" fill="none" xmlns="http://www.w3.org/2000/svg">
<path d="M50 24.9905C50 38.7689 38.7784 49.9811 24.9905 49.9811C11.2121 49.9716 0 38.7595 0 24.9716C0.0094697 11.1932 11.2311 -0.0094637 25.0189 5.99919e-06C38.7879 0.0094757 49.9905 11.2216 50 24.9905ZM47.6515 24.9811C47.6515 12.5095 37.4811 2.34849 25.0095 2.34849C12.5379 2.34849 2.36743 12.5095 2.35796 24.9811C2.34849 37.4621 12.5284 47.642 25.0189 47.642C37.4905 47.6326 47.6515 37.4621 47.6515 24.9811Z" fill="#2D358B"/>
<path d="M10.3694 17.4339C10.4073 15.8903 10.805 14.4888 11.7804 13.2767C12.3675 12.5286 13.1724 12.1025 14.0152 11.7331C14.9243 11.3354 15.8429 10.9472 16.7804 10.5968C18.1535 10.0759 19.6686 10.5873 20.4262 11.8562C21.3542 13.4093 22.2633 14.9718 23.144 16.5437C23.9489 17.9831 23.5039 19.6782 22.1308 20.5873C22.0076 20.6725 21.8845 20.7483 21.7614 20.8335C20.8239 21.4964 20.6345 22.5854 21.3258 23.4945C22.4717 25.0096 23.7879 26.3543 25.2084 27.6138C25.5967 27.9642 26.0133 28.2956 26.4205 28.6176C27.4243 29.4036 28.5133 29.2237 29.2141 28.1536C29.6118 27.5475 30.0664 27.0172 30.7482 26.7331C31.6383 26.3638 32.519 26.3638 33.3618 26.8278C34.9717 27.7369 36.591 28.646 38.1819 29.6024C39.4035 30.3411 39.9338 31.771 39.4414 33.1252C38.9963 34.3468 38.4754 35.54 37.9073 36.7142C37.1402 38.2956 35.7576 39.0816 34.1099 39.4225C32.3296 39.7918 30.6061 39.4699 28.9205 38.8828C26.0039 37.8506 23.4565 36.165 21.0986 34.2142C17.9925 31.6384 15.3031 28.6934 13.1724 25.2559C12.0171 23.3998 11.0701 21.449 10.644 19.29C10.4925 18.6839 10.4451 18.0589 10.3694 17.4339ZM32.5379 37.2729C32.9641 37.2066 33.3997 37.1877 33.8258 37.0835C34.7065 36.8562 35.483 36.449 35.8713 35.5684C36.3258 34.5456 36.7614 33.5134 37.1876 32.4812C37.3486 32.074 37.2349 31.771 36.8467 31.5437C36.4111 31.2786 35.9754 31.0418 35.5398 30.7862C34.5076 30.1896 33.4754 29.593 32.4527 28.9964C31.9319 28.6934 31.6194 28.7786 31.2879 29.271C31.2501 29.3373 31.2027 29.4131 31.1554 29.4699C29.7823 31.5627 27.1686 32.0835 25.1611 30.6062C22.9451 28.968 21.0228 27.0267 19.3751 24.8297C18.4565 23.6081 18.305 22.2256 18.8637 20.7956C19.2236 19.8771 19.8959 19.2142 20.7198 18.7028C21.1838 18.4187 21.2879 18.0684 21.0417 17.6328C20.18 16.1365 19.3277 14.6403 18.447 13.1441C18.2292 12.7653 17.9073 12.6517 17.5095 12.8127C16.4489 13.2483 15.3694 13.6839 14.3372 14.1858C13.9679 14.3657 13.6364 14.7066 13.3997 15.0475C12.68 16.0892 12.6611 17.2918 12.8504 18.485C13.1345 20.3032 13.8921 21.932 14.8107 23.504C16.4016 26.2218 18.3997 28.6081 20.6914 30.7578C22.983 32.9263 25.4641 34.8203 28.3523 36.1365C29.6781 36.7521 31.0512 37.2066 32.5379 37.2729Z" fill="#2D358B"/>
</svg>
