<svg width="25" height="35" viewBox="0 0 25 35" fill="none" xmlns="http://www.w3.org/2000/svg">
<path d="M12.7063 15.9359C12.5492 15.9202 12.3607 15.9202 12.1879 15.9359C10.3847 15.8747 8.67618 15.114 7.42407 13.815C6.17197 12.5159 5.47464 10.7806 5.47976 8.97636C5.47976 5.12742 8.59033 2.00113 12.455 2.00113C13.37 1.98463 14.2792 2.1485 15.1309 2.4834C15.9825 2.81829 16.7598 3.31765 17.4185 3.95296C18.0771 4.58827 18.6042 5.34709 18.9696 6.1861C19.335 7.0251 19.5315 7.92786 19.548 8.84283C19.5645 9.7578 19.4007 10.6671 19.0658 11.5187C18.7309 12.3703 18.2315 13.1477 17.5962 13.8063C16.9609 14.465 16.2021 14.992 15.3631 15.3574C14.5241 15.7228 13.6213 15.9194 12.7063 15.9359ZM4.85136 21.7329C1.04955 24.2779 1.04955 28.4253 4.85136 30.9546C9.1716 33.8453 16.2568 33.8453 20.577 30.9546C24.3789 28.4096 24.3789 24.2622 20.577 21.7329C16.2725 18.8579 9.18731 18.8579 4.85136 21.7329Z" stroke="#2D358B" stroke-opacity="0.6" stroke-width="2.3565" stroke-linecap="round" stroke-linejoin="round"/>
</svg>
