<svg width="50" height="35" viewBox="0 0 50 35" fill="none" xmlns="http://www.w3.org/2000/svg">
<path d="M25.0141 0.00276756C31.6661 0.00276756 38.3071 -0.00830166 44.959 0.0138348C47.062 0.024903 48.5894 0.998906 49.5302 2.8805C49.8733 3.5778 49.9951 4.33044 49.9951 5.10521C49.9951 13.2514 50.0062 21.3865 49.9951 29.5438C49.9951 32.012 48.5452 33.8825 46.1434 34.5024C45.7449 34.602 45.3132 34.6352 44.8816 34.6352C31.6329 34.6463 18.3732 34.6463 5.12458 34.6352C2.83346 34.6352 1.02934 33.3955 0.287771 31.2704C0.0996111 30.7392 0.0110655 30.1415 0.0110655 29.577C-2.70236e-06 21.3976 0 13.2182 0 5.0388C0 2.68127 1.40566 0.810746 3.66357 0.179858C4.15057 0.0470394 4.65972 0.0138348 5.16885 0.0138348C11.7876 0.00276655 18.4064 0.00276756 25.0141 0.00276756ZM3.24298 32.2112C3.42007 32.3109 3.5529 32.4437 3.69678 32.4769C4.19485 32.5765 4.70398 32.7315 5.21312 32.7315C18.3954 32.7425 31.5776 32.7425 44.7488 32.7425C44.9812 32.7425 45.2247 32.7425 45.4571 32.7204C45.9331 32.665 46.3647 32.5101 46.7742 32.2002C46.6746 32.0784 46.6082 31.9788 46.5197 31.8903C42.0481 26.7878 37.5655 21.6854 33.0939 16.5829C32.8947 16.3505 32.773 16.3062 32.5184 16.5387C30.2715 18.542 28.0026 20.5343 25.7446 22.5155C25.2023 22.9914 24.7706 22.9804 24.2394 22.5155C22.4463 20.9327 20.6533 19.35 18.8713 17.7783C18.3289 17.2913 17.7755 16.8264 17.2 16.3062C12.5513 21.6079 7.91377 26.8874 3.24298 32.2112ZM4.0399 2.00611C4.02883 2.06145 3.99562 2.10573 3.98455 2.17214C4.08417 2.23854 4.18378 2.29389 4.27232 2.37136C6.95083 4.72889 9.61827 7.08642 12.2857 9.44395C16.4141 13.0854 20.5426 16.7268 24.66 20.3793C24.9145 20.6118 25.0695 20.6118 25.3241 20.3793C26.3977 19.3943 27.5045 18.4424 28.6002 17.4684C34.2782 12.4545 39.9562 7.45167 45.6342 2.43777C45.756 2.33816 45.8666 2.22748 45.9773 2.11679C45.9663 2.07252 45.9663 2.03932 45.9441 1.99504C45.5678 1.96184 45.1915 1.89543 44.8152 1.89543C31.5887 1.88436 18.3622 1.88436 5.13565 1.89543C4.9807 1.89543 4.82574 1.89543 4.68185 1.9065C4.47155 1.92864 4.26126 1.97291 4.0399 2.00611ZM2.42394 3.23468C2.32433 3.40071 2.20257 3.52246 2.18044 3.66634C2.08082 4.16441 1.92587 4.67355 1.92587 5.17162C1.9148 13.2625 1.9148 21.3423 1.9148 29.4331C1.9148 29.6766 1.92587 29.9312 1.948 30.1747C1.95907 30.3297 2.02548 30.4735 2.08082 30.6617C2.21364 30.5289 2.29112 30.4403 2.3686 30.3518C6.75161 25.36 11.1346 20.3683 15.5287 15.3654C15.7501 15.1219 15.7611 14.9781 15.4955 14.7456C12.3521 11.9896 9.23088 9.22258 6.09858 6.45553C4.89214 5.40405 3.67465 4.3415 2.42394 3.23468ZM47.549 3.26789C47.2391 3.54459 46.9624 3.77703 46.6857 4.02053C42.6237 7.60663 38.5616 11.2038 34.4885 14.7788C34.2782 14.967 34.2782 15.0887 34.4664 15.288C38.8605 20.2797 43.2324 25.2715 47.6154 30.2743C47.704 30.3739 47.8036 30.4625 47.8921 30.551C47.9364 30.5399 47.9696 30.5289 48.0139 30.5178C48.036 30.1415 48.0914 29.7541 48.0914 29.3778C48.1024 21.3423 48.0914 13.3068 48.0914 5.26017C48.0914 5.0056 48.0914 4.73996 48.0581 4.48539C47.9917 4.05373 47.8811 3.64421 47.549 3.26789Z" fill="#2D358B"/>
</svg>
