<svg width="16" height="16" viewBox="0 0 16 16" fill="none" xmlns="http://www.w3.org/2000/svg">
<path d="M14.4359 16C12.6048 16 10.82 15.5739 9.08141 14.7218C7.34229 13.8702 5.80218 12.7443 4.46108 11.344C3.1194 9.9443 2.04061 8.33689 1.22471 6.52178C0.408237 4.70726 0 2.84444 0 0.933333C0 0.666667 0.0851675 0.444444 0.255503 0.266667C0.425838 0.0888888 0.638757 0 0.894259 0H4.34354C4.54227 0 4.7197 0.0666666 4.87584 0.2C5.03198 0.333333 5.12425 0.503704 5.15264 0.711111L5.70622 3.82222C5.73461 4.02963 5.73121 4.21837 5.696 4.38844C5.66023 4.55911 5.57847 4.71111 5.45072 4.84444L3.38541 7.02222C3.98158 8.08889 4.73049 9.08889 5.63213 10.0222C6.5332 10.9556 7.52313 11.763 8.60192 12.4444L10.6034 10.3556C10.7311 10.2222 10.898 10.1221 11.1041 10.0551C11.3097 9.98874 11.5118 9.97037 11.7105 10L14.6488 10.6222C14.8475 10.6667 15.0108 10.7665 15.1385 10.9218C15.2663 11.0776 15.3302 11.2593 15.3302 11.4667V15.0667C15.3302 15.3333 15.245 15.5556 15.0747 15.7333C14.9043 15.9111 14.6914 16 14.4359 16ZM2.57632 5.33333L3.98158 3.86667L3.61962 1.77778H1.72464C1.79562 2.38519 1.89498 2.98518 2.02273 3.57778C2.15048 4.17037 2.33501 4.75556 2.57632 5.33333ZM10.1988 13.2889C10.7524 13.5407 11.3168 13.7407 11.8919 13.8889C12.4665 14.037 13.0448 14.1333 13.6268 14.1778V12.2222L11.6254 11.8L10.1988 13.2889Z" fill="#2D358B"/>
<path d="M8.96191 4.05081L8.87001 2.73531C9.45098 2.69034 10.0098 2.75732 10.5464 2.93621C11.0822 3.11517 11.565 3.39795 11.9948 3.78455C12.4247 4.17115 12.7639 4.62774 13.0126 5.15434C13.2605 5.68099 13.4056 6.24705 13.4479 6.85258L12.1858 6.95031C12.1566 6.5327 12.0562 6.13907 11.8846 5.76944C11.7125 5.39942 11.4706 5.07425 11.159 4.79397C10.8473 4.51368 10.5033 4.31191 10.1269 4.18862C9.75091 4.06573 9.36259 4.0198 8.96191 4.05081ZM8.80596 1.38618L8.71405 0.0706992C9.61557 0.000899825 10.4946 0.11131 11.3512 0.401895C12.207 0.692537 12.9788 1.14715 13.6665 1.7657C14.3543 2.38427 14.8987 3.11343 15.2998 3.95316C15.7009 4.79381 15.9344 5.68394 16 6.62358L14.7379 6.7213C14.6839 5.94867 14.4924 5.22347 14.1635 4.54568C13.8338 3.86788 13.3895 3.2777 12.8307 2.77512C12.2719 2.27255 11.6471 1.90629 10.9562 1.67635C10.2654 1.4464 9.54867 1.34969 8.80596 1.38618Z" fill="#2D358B"/>
</svg>
