<svg width="50" height="50" viewBox="0 0 50 50" fill="none" xmlns="http://www.w3.org/2000/svg">
<path d="M0.113424 24.9257C0.134045 20.2036 1.20632 15.7701 3.72205 11.7285C6.00063 8.06829 9.11435 5.28449 12.8879 3.23273C15.4861 1.8099 18.2493 0.85104 21.1775 0.345833C23.755 -0.107822 26.3326 -0.0975132 28.9205 0.273659C33.5499 0.943832 37.6843 2.73783 41.2208 5.78969C45.2624 9.26428 47.8813 13.6462 49.2216 18.791C50.4898 23.6163 50.1702 28.3694 48.5411 33.0503C47.0564 37.329 44.7675 41.0923 41.3651 44.1236C38.2205 46.9177 34.5294 48.6292 30.3949 49.4025C27.8792 49.8767 25.3428 50.0108 22.8065 49.7736C20.1258 49.5159 17.5379 48.8251 15.0634 47.7425C10.9599 45.9588 7.49563 43.34 4.80463 39.7417C2.52604 36.6795 1.07228 33.2461 0.484594 29.4829C0.257766 27.9672 0.154655 26.4413 0 24.9154C0.0515517 24.936 0.0824928 24.9257 0.113424 24.9257ZM7.22756 39.886C7.29974 39.7623 7.36159 39.5973 7.46469 39.4942C8.91845 38.0301 10.5372 36.762 12.3209 35.7206C12.6199 35.5454 12.6611 35.3804 12.5786 35.0608C11.8569 32.1533 11.4754 29.1942 11.4239 26.1939C11.4136 25.833 11.3105 25.7402 10.9496 25.7402C8.03177 25.7505 5.11393 25.7505 2.20642 25.7505C2.07238 25.7505 1.93835 25.7608 1.74245 25.7711C1.9899 31.0707 3.75298 35.7309 7.22756 39.886ZM42.9529 39.8963C43.1282 39.6901 43.2107 39.5973 43.2931 39.4942C44.5304 37.9374 45.5717 36.2568 46.3759 34.4421C47.541 31.813 48.2009 29.0498 48.3555 26.1733C48.3658 25.9155 48.3452 25.7608 48.0153 25.7608C45.0356 25.7711 42.0662 25.7711 39.0762 25.7608C38.7978 25.7608 38.7154 25.8536 38.705 26.132C38.6432 29.1839 38.272 32.1945 37.5297 35.1536C37.4575 35.4216 37.5194 35.5763 37.7771 35.7103C39.468 36.7001 41.0249 37.8961 42.4271 39.2674C42.623 39.4427 42.7673 39.6695 42.9529 39.8963ZM1.75276 24.1215C1.8971 24.1318 1.96928 24.1524 2.04145 24.1524C5.05207 24.1524 8.073 24.1524 11.0836 24.1627C11.3517 24.1627 11.4239 24.0699 11.4239 23.8122C11.4857 20.75 11.8672 17.7291 12.6096 14.7494C12.6817 14.4813 12.6199 14.3576 12.3827 14.2132C10.5475 13.141 8.87722 11.8419 7.38222 10.3262C7.31005 10.2541 7.21725 10.1819 7.10383 10.0788C3.76328 14.1926 1.9899 18.8426 1.75276 24.1215ZM43.0869 10.0479C42.9117 10.2025 42.8395 10.2541 42.7776 10.3262C41.2929 11.8212 39.6536 13.1204 37.839 14.1823C37.5297 14.3679 37.4884 14.5535 37.5606 14.8731C38.2823 17.7703 38.6535 20.7191 38.7154 23.7091C38.7257 24.0596 38.8081 24.173 39.1793 24.173C42.0971 24.1627 45.015 24.1627 47.9328 24.173C48.304 24.173 48.3968 24.0802 48.3762 23.7091C48.1493 19.9046 47.0977 16.3578 45.149 13.0997C44.5098 12.0584 43.788 11.0789 43.0869 10.0479ZM24.2396 48.2168C24.2499 48.1034 24.2603 48.0415 24.2603 47.9899C24.2603 43.3709 24.2602 38.7622 24.2706 34.1535C24.2706 33.8648 24.1468 33.8338 23.9097 33.8442C20.7135 34.04 17.6616 34.803 14.785 36.2155C14.5891 36.3083 14.5479 36.4011 14.6098 36.6176C15.3109 38.9684 16.2491 41.216 17.5895 43.2781C18.6927 44.969 20.0021 46.4537 21.8064 47.4332C22.559 47.8353 23.3426 48.1137 24.2396 48.2168ZM24.2396 1.65525C23.7654 1.77897 23.3323 1.86145 22.9199 1.99549C21.0434 2.65535 19.6309 3.93383 18.4349 5.47008C16.6203 7.80021 15.4965 10.45 14.6304 13.2441C14.5376 13.5328 14.6407 13.6359 14.8778 13.7493C17.6822 15.1102 20.6413 15.8629 23.7447 16.0588C23.9097 16.0691 24.085 16.0588 24.2499 16.0588C24.2396 11.2542 24.2396 6.50111 24.2396 1.65525ZM25.8893 48.258C26.3636 48.1343 26.8069 48.0518 27.209 47.9075C29.0752 47.2476 30.4774 45.9897 31.6631 44.4638C33.4777 42.1337 34.6222 39.4633 35.4882 36.6589C35.581 36.3702 35.4882 36.2774 35.2511 36.1537C32.8075 34.968 30.2403 34.2359 27.5389 33.9369C26.9822 33.8751 26.4357 33.8441 25.8687 33.8132C25.8893 38.6591 25.8893 43.4225 25.8893 48.258ZM25.8996 1.7068C25.8996 6.53204 25.8996 11.2954 25.8996 16.0588C25.9821 16.0691 26.0233 16.0794 26.0749 16.0691C26.4254 16.0485 26.7657 16.0279 27.1265 15.9969C30.0134 15.7495 32.756 14.9762 35.3645 13.7184C35.5501 13.6256 35.6016 13.5328 35.5398 13.3162C34.9005 11.2026 34.086 9.1818 32.9519 7.2847C31.8487 5.43914 30.5083 3.78949 28.6318 2.66566C27.7864 2.16045 26.91 1.8099 25.8996 1.7068ZM14.0943 34.7308C14.2592 34.6587 14.3417 34.638 14.4139 34.6071C17.4142 33.1946 20.5692 32.4007 23.8788 32.246C24.1675 32.2357 24.2603 32.1532 24.2603 31.8542C24.2499 29.9675 24.2499 28.091 24.2603 26.2042C24.2603 25.833 24.1468 25.7505 23.7963 25.7505C20.3423 25.7608 16.8884 25.7608 13.4344 25.7505C13.0632 25.7505 12.9601 25.8536 12.991 26.2145C13.1972 28.1838 13.3519 30.153 13.5787 32.1223C13.6921 32.9884 13.919 33.8338 14.0943 34.7308ZM36.0037 34.7205C36.045 34.5865 36.0759 34.4834 36.0965 34.3803C36.7255 31.6687 37.0245 28.9055 37.1276 26.1217C37.1379 25.7505 36.9523 25.7505 36.6945 25.7505C33.2302 25.7608 29.7557 25.7608 26.3017 25.7402C25.9615 25.7402 25.848 25.833 25.8584 26.1836C25.8687 28.0497 25.8687 29.9262 25.8584 31.7924C25.8584 32.1429 25.9718 32.2357 26.3017 32.246C29.1474 32.3698 31.8693 32.9781 34.5087 34.0607C34.9933 34.2669 35.4779 34.4937 36.0037 34.7205ZM14.1458 15.203C14.1046 15.3165 14.0736 15.3783 14.053 15.4505C13.4138 18.2034 13.1045 20.9975 13.0014 23.8122C12.991 24.1215 13.1148 24.1524 13.3725 24.1524C16.878 24.1421 20.3733 24.1421 23.8788 24.1524C24.1984 24.1524 24.2706 24.039 24.2706 23.74C24.2602 21.8532 24.2602 19.9767 24.2706 18.0899C24.2706 17.7806 24.1881 17.6569 23.8581 17.6363C20.5795 17.5023 17.4657 16.698 14.4964 15.3268C14.3829 15.2958 14.2695 15.2546 14.1458 15.203ZM36.0244 15.1927C35.8491 15.2649 35.7666 15.2855 35.6738 15.3371C32.6838 16.7393 29.5391 17.5332 26.2295 17.6672C25.9305 17.6775 25.8584 17.7909 25.8584 18.0693C25.8687 19.9561 25.8687 21.8326 25.8584 23.7194C25.848 24.0906 25.9821 24.173 26.3326 24.173C29.7866 24.1627 33.2406 24.1627 36.6945 24.173C37.0657 24.173 37.1482 24.0699 37.1379 23.7091C37.0451 21.5542 36.8492 19.4097 36.4677 17.2857C36.3337 16.5846 36.1687 15.9145 36.0244 15.1927ZM41.994 8.90342C38.9319 5.72783 35.3026 3.57297 31.0548 2.44914C34.0654 5.2948 35.7563 8.89311 37.0141 12.7595C38.8906 11.7388 40.4063 10.3366 41.994 8.90342ZM37.0141 37.1125C36.3955 39.0921 35.6532 40.9377 34.684 42.6801C33.7148 44.4329 32.5292 46.0413 30.9929 47.4435C33.5396 47.3404 40.3032 43.34 41.9219 41.0098C40.4784 39.5045 38.8597 38.2157 37.0141 37.1125ZM19.0638 2.46976C14.8366 3.57297 11.228 5.71752 8.17611 8.87249C9.6608 10.4087 11.2692 11.7078 13.1045 12.8007C14.3726 8.90342 16.0635 5.31542 19.0638 2.46976ZM19.0535 47.4538C16.0635 44.6082 14.3726 41.0202 13.1148 37.1435C11.2692 38.226 9.65049 39.5251 8.18642 41.0717C11.2486 44.206 14.8469 46.3403 19.0535 47.4538Z" fill="#2D358B"/>
</svg>
