<svg width="32" height="22" viewBox="0 0 32 22" fill="none" xmlns="http://www.w3.org/2000/svg">
<path opacity="0.6" d="M15.6136 2.83883C20.9931 2.83883 25.7908 5.86218 28.1328 10.6456C25.7908 15.429 20.9931 18.4524 15.6136 18.4524C10.234 18.4524 5.43636 15.429 3.09432 10.6456C5.43636 5.86218 10.234 2.83883 15.6136 2.83883ZM15.6136 0C8.51649 0 2.45559 4.41438 0 10.6456C2.45559 16.8768 8.51649 21.2912 15.6136 21.2912C22.7106 21.2912 28.7715 16.8768 31.2271 10.6456C28.7715 4.41438 22.7106 0 15.6136 0ZM15.6136 7.09707C17.5724 7.09707 19.1621 8.68682 19.1621 10.6456C19.1621 12.6044 17.5724 14.1941 15.6136 14.1941C13.6548 14.1941 12.065 12.6044 12.065 10.6456C12.065 8.68682 13.6548 7.09707 15.6136 7.09707ZM15.6136 4.25824C12.0934 4.25824 9.2262 7.12546 9.2262 10.6456C9.2262 14.1658 12.0934 17.033 15.6136 17.033C19.1337 17.033 22.0009 14.1658 22.0009 10.6456C22.0009 7.12546 19.1337 4.25824 15.6136 4.25824Z" fill="#2D358B"/>
</svg>
